<svg xmlns="http://www.w3.org/2000/svg" width="1000" height="500" viewBox="0 0 1000 500" role="img" aria-label="Stack. AI and agents: LangGraph, LangChain, LlamaIndex, MCP, RAG, Tool calling, Whisper, ElevenLabs, Gemini. Forecasting and ML: Python, PyTorch, TensorFlow, scikit-learn, LightGBM, XGBoost, Prophet, Optuna. Full stack: TypeScript, React, Next.js, Vite, Tailwind, Node.js, Express, FastAPI, Django, Spring, PHP, MongoDB, Redis, MySQL. Mobile: Kotlin, Java, Jetpack Compose, Flutter, Firebase. Infra and tools: Docker, AWS, Airflow, Nginx, Git, Linux, Postman, Figma.">
  <style>
    .mono { font-family: ui-monospace, SFMono-Regular, Menlo, Consolas, monospace; }
    .row { animation: in .45s ease-out both; }
    @keyframes in { from { opacity: 0; transform: translateY(8px) } to { opacity: 1; transform: translateY(0) } }
  </style>
  <rect width="1000" height="500" rx="22" fill="#16181D"/>
  <text x="40" y="44" class="mono" font-size="15" fill="#7FD1CC">~/shivam $ cat stack.txt</text>
  <g class="row" style="animation-delay:0.00s"><text x="40" y="95" class="mono" font-size="13" letter-spacing="1.5" fill="#7FD1CC">AI &amp; AGENTS</text><rect x="250" y="74" width="108" height="32" rx="16" fill="#1E2127" stroke="#2E323A"/><circle cx="265" cy="90.0" r="4" fill="#7FD1CC"/><text x="276" y="95" class="mono" font-size="13" fill="#E6E8EC">LangGraph</text><rect x="366" y="74" width="108" height="32" rx="16" fill="#1E2127" stroke="#2E323A"/><circle cx="381" cy="90.0" r="4" fill="#7FD1CC"/><text x="392" y="95" class="mono" font-size="13" fill="#E6E8EC">LangChain</text><rect x="482" y="74" width="116" height="32" rx="16" fill="#1E2127" stroke="#2E323A"/><circle cx="497" cy="90.0" r="4" fill="#7FD1CC"/><text x="508" y="95" class="mono" font-size="13" fill="#E6E8EC">LlamaIndex</text><rect x="606" y="74" width="61" height="32" rx="16" fill="#1E2127" stroke="#2E323A"/><circle cx="621" cy="90.0" r="4" fill="#7FD1CC"/><text x="632" y="95" class="mono" font-size="13" fill="#E6E8EC">MCP</text><rect x="675" y="74" width="61" height="32" rx="16" fill="#1E2127" stroke="#2E323A"/><circle cx="690" cy="90.0" r="4" fill="#7FD1CC"/><text x="701" y="95" class="mono" font-size="13" fill="#E6E8EC">RAG</text><rect x="744" y="74" width="132" height="32" rx="16" fill="#1E2127" stroke="#2E323A"/><circle cx="759" cy="90.0" r="4" fill="#7FD1CC"/><text x="770" y="95" class="mono" font-size="13" fill="#E6E8EC">Tool calling</text><rect x="250" y="116" width="92" height="32" rx="16" fill="#1E2127" stroke="#2E323A"/><circle cx="265" cy="132.0" r="4" fill="#7FD1CC"/><text x="276" y="137" class="mono" font-size="13" fill="#E6E8EC">Whisper</text><rect x="350" y="116" width="116" height="32" rx="16" fill="#1E2127" stroke="#2E323A"/><circle cx="365" cy="132.0" r="4" fill="#7FD1CC"/><text x="376" y="137" class="mono" font-size="13" fill="#E6E8EC">ElevenLabs</text><rect x="474" y="116" width="85" height="32" rx="16" fill="#1E2127" stroke="#2E323A"/><circle cx="489" cy="132.0" r="4" fill="#7FD1CC"/><text x="500" y="137" class="mono" font-size="13" fill="#E6E8EC">Gemini</text></g><line x1="40" y1="161" x2="960" y2="161" stroke="#23262D"/><g class="row" style="animation-delay:0.08s"><text x="40" y="195" class="mono" font-size="13" letter-spacing="1.5" fill="#F08A4B">FORECASTING &amp; ML</text><rect x="250" y="174" width="85" height="32" rx="16" fill="#1E2127" stroke="#2E323A"/><circle cx="265" cy="190.0" r="4" fill="#F08A4B"/><text x="276" y="195" class="mono" font-size="13" fill="#E6E8EC">Python</text><rect x="343" y="174" width="92" height="32" rx="16" fill="#1E2127" stroke="#2E323A"/><circle cx="358" cy="190.0" r="4" fill="#F08A4B"/><text x="369" y="195" class="mono" font-size="13" fill="#E6E8EC">PyTorch</text><rect x="443" y="174" width="116" height="32" rx="16" fill="#1E2127" stroke="#2E323A"/><circle cx="458" cy="190.0" r="4" fill="#F08A4B"/><text x="469" y="195" class="mono" font-size="13" fill="#E6E8EC">TensorFlow</text><rect x="567" y="174" width="132" height="32" rx="16" fill="#1E2127" stroke="#2E323A"/><circle cx="582" cy="190.0" r="4" fill="#F08A4B"/><text x="593" y="195" class="mono" font-size="13" fill="#E6E8EC">scikit-learn</text><rect x="707" y="174" width="100" height="32" rx="16" fill="#1E2127" stroke="#2E323A"/><circle cx="722" cy="190.0" r="4" fill="#F08A4B"/><text x="733" y="195" class="mono" font-size="13" fill="#E6E8EC">LightGBM</text><rect x="815" y="174" width="92" height="32" rx="16" fill="#1E2127" stroke="#2E323A"/><circle cx="830" cy="190.0" r="4" fill="#F08A4B"/><text x="841" y="195" class="mono" font-size="13" fill="#E6E8EC">XGBoost</text><rect x="250" y="216" width="92" height="32" rx="16" fill="#1E2127" stroke="#2E323A"/><circle cx="265" cy="232.0" r="4" fill="#F08A4B"/><text x="276" y="237" class="mono" font-size="13" fill="#E6E8EC">Prophet</text><rect x="350" y="216" width="85" height="32" rx="16" fill="#1E2127" stroke="#2E323A"/><circle cx="365" cy="232.0" r="4" fill="#F08A4B"/><text x="376" y="237" class="mono" font-size="13" fill="#E6E8EC">Optuna</text></g><line x1="40" y1="261" x2="960" y2="261" stroke="#23262D"/><g class="row" style="animation-delay:0.16s"><text x="40" y="295" class="mono" font-size="13" letter-spacing="1.5" fill="#9DB4FF">FULL STACK</text><rect x="250" y="274" width="116" height="32" rx="16" fill="#1E2127" stroke="#2E323A"/><circle cx="265" cy="290.0" r="4" fill="#9DB4FF"/><text x="276" y="295" class="mono" font-size="13" fill="#E6E8EC">TypeScript</text><rect x="374" y="274" width="77" height="32" rx="16" fill="#1E2127" stroke="#2E323A"/><circle cx="389" cy="290.0" r="4" fill="#9DB4FF"/><text x="400" y="295" class="mono" font-size="13" fill="#E6E8EC">React</text><rect x="459" y="274" width="92" height="32" rx="16" fill="#1E2127" stroke="#2E323A"/><circle cx="474" cy="290.0" r="4" fill="#9DB4FF"/><text x="485" y="295" class="mono" font-size="13" fill="#E6E8EC">Next.js</text><rect x="559" y="274" width="69" height="32" rx="16" fill="#1E2127" stroke="#2E323A"/><circle cx="574" cy="290.0" r="4" fill="#9DB4FF"/><text x="585" y="295" class="mono" font-size="13" fill="#E6E8EC">Vite</text><rect x="636" y="274" width="100" height="32" rx="16" fill="#1E2127" stroke="#2E323A"/><circle cx="651" cy="290.0" r="4" fill="#9DB4FF"/><text x="662" y="295" class="mono" font-size="13" fill="#E6E8EC">Tailwind</text><rect x="744" y="274" width="92" height="32" rx="16" fill="#1E2127" stroke="#2E323A"/><circle cx="759" cy="290.0" r="4" fill="#9DB4FF"/><text x="770" y="295" class="mono" font-size="13" fill="#E6E8EC">Node.js</text><rect x="844" y="274" width="92" height="32" rx="16" fill="#1E2127" stroke="#2E323A"/><circle cx="859" cy="290.0" r="4" fill="#9DB4FF"/><text x="870" y="295" class="mono" font-size="13" fill="#E6E8EC">Express</text><rect x="250" y="316" width="92" height="32" rx="16" fill="#1E2127" stroke="#2E323A"/><circle cx="265" cy="332.0" r="4" fill="#9DB4FF"/><text x="276" y="337" class="mono" font-size="13" fill="#E6E8EC">FastAPI</text><rect x="350" y="316" width="85" height="32" rx="16" fill="#1E2127" stroke="#2E323A"/><circle cx="365" cy="332.0" r="4" fill="#9DB4FF"/><text x="376" y="337" class="mono" font-size="13" fill="#E6E8EC">Django</text><rect x="443" y="316" width="85" height="32" rx="16" fill="#1E2127" stroke="#2E323A"/><circle cx="458" cy="332.0" r="4" fill="#9DB4FF"/><text x="469" y="337" class="mono" font-size="13" fill="#E6E8EC">Spring</text><rect x="536" y="316" width="61" height="32" rx="16" fill="#1E2127" stroke="#2E323A"/><circle cx="551" cy="332.0" r="4" fill="#9DB4FF"/><text x="562" y="337" class="mono" font-size="13" fill="#E6E8EC">PHP</text><rect x="605" y="316" width="92" height="32" rx="16" fill="#1E2127" stroke="#2E323A"/><circle cx="620" cy="332.0" r="4" fill="#9DB4FF"/><text x="631" y="337" class="mono" font-size="13" fill="#E6E8EC">MongoDB</text><rect x="705" y="316" width="77" height="32" rx="16" fill="#1E2127" stroke="#2E323A"/><circle cx="720" cy="332.0" r="4" fill="#9DB4FF"/><text x="731" y="337" class="mono" font-size="13" fill="#E6E8EC">Redis</text><rect x="790" y="316" width="77" height="32" rx="16" fill="#1E2127" stroke="#2E323A"/><circle cx="805" cy="332.0" r="4" fill="#9DB4FF"/><text x="816" y="337" class="mono" font-size="13" fill="#E6E8EC">MySQL</text></g><line x1="40" y1="361" x2="960" y2="361" stroke="#23262D"/><g class="row" style="animation-delay:0.24s"><text x="40" y="395" class="mono" font-size="13" letter-spacing="1.5" fill="#E8B04B">MOBILE</text><rect x="250" y="374" width="85" height="32" rx="16" fill="#1E2127" stroke="#2E323A"/><circle cx="265" cy="390.0" r="4" fill="#E8B04B"/><text x="276" y="395" class="mono" font-size="13" fill="#E6E8EC">Kotlin</text><rect x="343" y="374" width="69" height="32" rx="16" fill="#1E2127" stroke="#2E323A"/><circle cx="358" cy="390.0" r="4" fill="#E8B04B"/><text x="369" y="395" class="mono" font-size="13" fill="#E6E8EC">Java</text><rect x="420" y="374" width="155" height="32" rx="16" fill="#1E2127" stroke="#2E323A"/><circle cx="435" cy="390.0" r="4" fill="#E8B04B"/><text x="446" y="395" class="mono" font-size="13" fill="#E6E8EC">Jetpack Compose</text><rect x="583" y="374" width="92" height="32" rx="16" fill="#1E2127" stroke="#2E323A"/><circle cx="598" cy="390.0" r="4" fill="#E8B04B"/><text x="609" y="395" class="mono" font-size="13" fill="#E6E8EC">Flutter</text><rect x="683" y="374" width="100" height="32" rx="16" fill="#1E2127" stroke="#2E323A"/><circle cx="698" cy="390.0" r="4" fill="#E8B04B"/><text x="709" y="395" class="mono" font-size="13" fill="#E6E8EC">Firebase</text></g><line x1="40" y1="419" x2="960" y2="419" stroke="#23262D"/><g class="row" style="animation-delay:0.32s"><text x="40" y="453" class="mono" font-size="13" letter-spacing="1.5" fill="#C9A7F5">INFRA &amp; TOOLS</text><rect x="250" y="432" width="85" height="32" rx="16" fill="#1E2127" stroke="#2E323A"/><circle cx="265" cy="448.0" r="4" fill="#C9A7F5"/><text x="276" y="453" class="mono" font-size="13" fill="#E6E8EC">Docker</text><rect x="343" y="432" width="61" height="32" rx="16" fill="#1E2127" stroke="#2E323A"/><circle cx="358" cy="448.0" r="4" fill="#C9A7F5"/><text x="369" y="453" class="mono" font-size="13" fill="#E6E8EC">AWS</text><rect x="412" y="432" width="92" height="32" rx="16" fill="#1E2127" stroke="#2E323A"/><circle cx="427" cy="448.0" r="4" fill="#C9A7F5"/><text x="438" y="453" class="mono" font-size="13" fill="#E6E8EC">Airflow</text><rect x="512" y="432" width="77" height="32" rx="16" fill="#1E2127" stroke="#2E323A"/><circle cx="527" cy="448.0" r="4" fill="#C9A7F5"/><text x="538" y="453" class="mono" font-size="13" fill="#E6E8EC">Nginx</text><rect x="597" y="432" width="61" height="32" rx="16" fill="#1E2127" stroke="#2E323A"/><circle cx="612" cy="448.0" r="4" fill="#C9A7F5"/><text x="623" y="453" class="mono" font-size="13" fill="#E6E8EC">Git</text><rect x="666" y="432" width="77" height="32" rx="16" fill="#1E2127" stroke="#2E323A"/><circle cx="681" cy="448.0" r="4" fill="#C9A7F5"/><text x="692" y="453" class="mono" font-size="13" fill="#E6E8EC">Linux</text><rect x="751" y="432" width="92" height="32" rx="16" fill="#1E2127" stroke="#2E323A"/><circle cx="766" cy="448.0" r="4" fill="#C9A7F5"/><text x="777" y="453" class="mono" font-size="13" fill="#E6E8EC">Postman</text><rect x="851" y="432" width="77" height="32" rx="16" fill="#1E2127" stroke="#2E323A"/><circle cx="866" cy="448.0" r="4" fill="#C9A7F5"/><text x="877" y="453" class="mono" font-size="13" fill="#E6E8EC">Figma</text></g>
</svg>